<svg width="512" height="512" xmlns="http://www.w3.org/2000/svg">
  <!-- 背景グラデーション -->
  <defs>
    <linearGradient id="grad" x1="0%" y1="0%" x2="100%" y2="100%">
      <stop offset="0%" style="stop-color:#667eea;stop-opacity:1" />
      <stop offset="100%" style="stop-color:#764ba2;stop-opacity:1" />
    </linearGradient>
  </defs>
  <rect width="512" height="512" rx="64" fill="url(#grad)"/>
  
  <!-- アイコン -->
  <g transform="translate(128, 128)">
    <path d="M14.5 2H6a2 2 0 0 0-2 2v16a2 2 0 0 0 2 2h12a2 2 0 0 0 2-2V7.5L14.5 2z" 
          fill="none" stroke="white" stroke-width="2" stroke-linecap="round" stroke-linejoin="round"
          transform="scale(10.67)"/>
    <polyline points="14,2 14,8 20,8" 
          fill="none" stroke="white" stroke-width="2" stroke-linecap="round" stroke-linejoin="round"
          transform="scale(10.67)"/>
    <line x1="16" y1="13" x2="8" y2="13" 
          stroke="white" stroke-width="2" stroke-linecap="round" stroke-linejoin="round"
          transform="scale(10.67)"/>
    <line x1="16" y1="17" x2="8" y2="17" 
          stroke="white" stroke-width="2" stroke-linecap="round" stroke-linejoin="round"
          transform="scale(10.67)"/>
    <polyline points="10,9 9,9 8,9" 
          stroke="white" stroke-width="2" stroke-linecap="round" stroke-linejoin="round"
          transform="scale(10.67)"/>
  </g>
</svg>
